<?xml version="1.0" encoding="utf-8"?>
<!-- Generator: Adobe Illustrator 16.0.0, SVG Export Plug-In . SVG Version: 6.00 Build 0)  -->
<!DOCTYPE svg PUBLIC "-//W3C//DTD SVG 1.1//EN" "http://www.w3.org/Graphics/SVG/1.1/DTD/svg11.dtd">
<svg version="1.1" id="Layer_1" xmlns="http://www.w3.org/2000/svg" xmlns:xlink="http://www.w3.org/1999/xlink" x="0px" y="0px"
	 width="22px" height="15.971px" viewBox="0 0 22 15.971" enable-background="new 0 0 22 15.971" xml:space="preserve">
<g>
	<path fill-rule="evenodd" clip-rule="evenodd" fill="#38B18A" d="M21.885,14.72c-1.657-0.315-3.203-0.843-4.66-1.575
		c-2.245-1.131-4.128-2.647-5.76-4.419c-0.764-0.829-1.462-1.707-2.188-2.563C9.204,6.079,9.137,5.99,9.027,5.924
		C9.27,6.33,9.504,6.74,9.758,7.14c1.466,2.317,3.276,4.379,5.599,6.05c1.271,0.913,2.651,1.656,4.17,2.188
		c0.063,0.021,0.122,0.047,0.245,0.095c-0.501,0.096-0.94,0.192-1.385,0.261c-1.08,0.169-2.165,0.266-3.265,0.23
		c-2.677-0.086-4.869-1.04-6.552-2.925c-1.016-1.137-1.755-2.422-2.45-3.73C5.385,7.924,4.675,6.528,3.899,5.162
		C3.238,3.998,2.405,2.932,1.281,2.083C0.882,1.782,0.441,1.526,0,1.237c0.431-0.125,0.864-0.259,1.303-0.375
		c2.267-0.597,4.573-0.94,6.938-0.847c4.075,0.16,7.603,1.426,10.334,4.233c1.628,1.674,2.619,3.637,3.109,5.814
		c0.329,1.468,0.386,2.946,0.238,4.435C21.917,14.564,21.9,14.629,21.885,14.72z"/>
</g>
</svg>
